<mxfile host="app.diagrams.net" modified="2020-11-21T01:11:27.579Z" agent="5.0 (Windows NT 10.0; Win64; x64) AppleWebKit/537.36 (KHTML, like Gecko) Chrome/86.0.4240.111 Safari/537.36 OPR/72.0.3815.186" etag="LBbFTl4TZiv0rF0DsftJ" version="13.10.0" type="github">
  <diagram id="4X2fFwt9Tq6b-dewwz5D" name="Page-1">
    <mxGraphModel dx="1382" dy="764" grid="1" gridSize="10" guides="1" tooltips="1" connect="1" arrows="1" fold="1" page="1" pageScale="1" pageWidth="850" pageHeight="1100" math="0" shadow="0">
      <root>
        <mxCell id="0" />
        <mxCell id="1" parent="0" />
        <mxCell id="WT74Tv9Oj-zCt2Bdq9al-36" value="" style="rounded=0;whiteSpace=wrap;html=1;fillColor=#E6E6E6;" parent="1" vertex="1">
          <mxGeometry x="70" y="640" width="710" height="200" as="geometry" />
        </mxCell>
        <mxCell id="WT74Tv9Oj-zCt2Bdq9al-17" value="" style="rounded=0;whiteSpace=wrap;html=1;fillColor=#DEDEDE;" parent="1" vertex="1">
          <mxGeometry x="70" y="60" width="700" height="500" as="geometry" />
        </mxCell>
        <mxCell id="WT74Tv9Oj-zCt2Bdq9al-1" value="User lands on PDP&lt;br&gt;(Buy Section)" style="rounded=1;whiteSpace=wrap;html=1;" parent="1" vertex="1">
          <mxGeometry x="340" y="80" width="120" height="60" as="geometry" />
        </mxCell>
        <mxCell id="WT74Tv9Oj-zCt2Bdq9al-3" value="Out of stock/&lt;br&gt;Coming soon?" style="rhombus;whiteSpace=wrap;html=1;" parent="1" vertex="1">
          <mxGeometry x="330" y="160" width="140" height="110" as="geometry" />
        </mxCell>
        <mxCell id="WT74Tv9Oj-zCt2Bdq9al-4" value="With or without backorder" style="rounded=1;whiteSpace=wrap;html=1;" parent="1" vertex="1">
          <mxGeometry x="165" y="185" width="120" height="60" as="geometry" />
        </mxCell>
        <mxCell id="WT74Tv9Oj-zCt2Bdq9al-5" value="Display add to cart" style="rounded=1;whiteSpace=wrap;html=1;" parent="1" vertex="1">
          <mxGeometry x="500" y="185" width="120" height="60" as="geometry" />
        </mxCell>
        <mxCell id="WT74Tv9Oj-zCt2Bdq9al-6" value="Already signed &lt;br&gt;up for notification?" style="rhombus;whiteSpace=wrap;html=1;" parent="1" vertex="1">
          <mxGeometry x="160" y="260" width="130" height="100" as="geometry" />
        </mxCell>
        <mxCell id="WT74Tv9Oj-zCt2Bdq9al-7" value="Display message" style="rounded=1;whiteSpace=wrap;html=1;" parent="1" vertex="1">
          <mxGeometry x="350" y="280" width="120" height="60" as="geometry" />
        </mxCell>
        <mxCell id="WT74Tv9Oj-zCt2Bdq9al-10" value="You will be notified when this product is available" style="ellipse;whiteSpace=wrap;html=1;" parent="1" vertex="1">
          <mxGeometry x="500" y="270" width="120" height="80" as="geometry" />
        </mxCell>
        <mxCell id="WT74Tv9Oj-zCt2Bdq9al-11" value="Sign up process" style="rounded=1;whiteSpace=wrap;html=1;" parent="1" vertex="1">
          <mxGeometry x="165" y="400" width="120" height="60" as="geometry" />
        </mxCell>
        <mxCell id="WT74Tv9Oj-zCt2Bdq9al-12" value="Set cookie (&#39;mozustocknotify/sku&#39;) to remember sign up for 365 days" style="rounded=1;whiteSpace=wrap;html=1;" parent="1" vertex="1">
          <mxGeometry x="160" y="490" width="130" height="60" as="geometry" />
        </mxCell>
        <mxCell id="WT74Tv9Oj-zCt2Bdq9al-15" value="Restocked" style="shape=parallelogram;perimeter=parallelogramPerimeter;whiteSpace=wrap;html=1;fixedSize=1;fillColor=#FF6666;" parent="1" vertex="1">
          <mxGeometry x="40" y="570" width="750" height="60" as="geometry" />
        </mxCell>
        <mxCell id="WT74Tv9Oj-zCt2Bdq9al-16" value="User lands on PDP" style="rounded=1;whiteSpace=wrap;html=1;" parent="1" vertex="1">
          <mxGeometry x="165" y="650" width="120" height="60" as="geometry" />
        </mxCell>
        <mxCell id="WT74Tv9Oj-zCt2Bdq9al-18" value="Clear cookie (&#39;mozustocknotify/sku&#39;" style="rounded=1;whiteSpace=wrap;html=1;fillColor=#FFFFFF;" parent="1" vertex="1">
          <mxGeometry x="165" y="760" width="120" height="60" as="geometry" />
        </mxCell>
        <mxCell id="WT74Tv9Oj-zCt2Bdq9al-19" value="Unsubscribe" style="rounded=1;whiteSpace=wrap;html=1;fillColor=#FFFFFF;" parent="1" vertex="1">
          <mxGeometry x="340" y="400" width="120" height="60" as="geometry" />
        </mxCell>
        <mxCell id="WT74Tv9Oj-zCt2Bdq9al-20" value="" style="endArrow=classic;html=1;entryX=0.5;entryY=0;entryDx=0;entryDy=0;" parent="1" source="WT74Tv9Oj-zCt2Bdq9al-1" target="WT74Tv9Oj-zCt2Bdq9al-3" edge="1">
          <mxGeometry width="50" height="50" relative="1" as="geometry">
            <mxPoint x="400" y="550" as="sourcePoint" />
            <mxPoint x="450" y="500" as="targetPoint" />
          </mxGeometry>
        </mxCell>
        <mxCell id="WT74Tv9Oj-zCt2Bdq9al-21" value="" style="endArrow=classic;html=1;exitX=0;exitY=0.5;exitDx=0;exitDy=0;entryX=1;entryY=0.5;entryDx=0;entryDy=0;" parent="1" source="WT74Tv9Oj-zCt2Bdq9al-3" target="WT74Tv9Oj-zCt2Bdq9al-4" edge="1">
          <mxGeometry width="50" height="50" relative="1" as="geometry">
            <mxPoint x="330" y="290" as="sourcePoint" />
            <mxPoint x="380" y="240" as="targetPoint" />
          </mxGeometry>
        </mxCell>
        <mxCell id="WT74Tv9Oj-zCt2Bdq9al-22" value="" style="endArrow=classic;html=1;exitX=1;exitY=0.5;exitDx=0;exitDy=0;entryX=0;entryY=0.5;entryDx=0;entryDy=0;" parent="1" source="WT74Tv9Oj-zCt2Bdq9al-3" target="WT74Tv9Oj-zCt2Bdq9al-5" edge="1">
          <mxGeometry width="50" height="50" relative="1" as="geometry">
            <mxPoint x="500" y="190" as="sourcePoint" />
            <mxPoint x="550" y="140" as="targetPoint" />
          </mxGeometry>
        </mxCell>
        <mxCell id="WT74Tv9Oj-zCt2Bdq9al-23" value="" style="endArrow=classic;html=1;entryX=0.5;entryY=0;entryDx=0;entryDy=0;exitX=0.5;exitY=1;exitDx=0;exitDy=0;" parent="1" source="WT74Tv9Oj-zCt2Bdq9al-4" target="WT74Tv9Oj-zCt2Bdq9al-6" edge="1">
          <mxGeometry width="50" height="50" relative="1" as="geometry">
            <mxPoint x="260" y="270" as="sourcePoint" />
            <mxPoint x="300" y="230" as="targetPoint" />
          </mxGeometry>
        </mxCell>
        <mxCell id="WT74Tv9Oj-zCt2Bdq9al-24" value="" style="endArrow=classic;html=1;entryX=0.5;entryY=0;entryDx=0;entryDy=0;exitX=0.5;exitY=1;exitDx=0;exitDy=0;" parent="1" source="WT74Tv9Oj-zCt2Bdq9al-6" target="WT74Tv9Oj-zCt2Bdq9al-11" edge="1">
          <mxGeometry width="50" height="50" relative="1" as="geometry">
            <mxPoint x="250" y="400" as="sourcePoint" />
            <mxPoint x="300" y="350" as="targetPoint" />
          </mxGeometry>
        </mxCell>
        <mxCell id="WT74Tv9Oj-zCt2Bdq9al-25" value="" style="endArrow=classic;html=1;entryX=0;entryY=0.5;entryDx=0;entryDy=0;exitX=1;exitY=0.5;exitDx=0;exitDy=0;" parent="1" source="WT74Tv9Oj-zCt2Bdq9al-6" target="WT74Tv9Oj-zCt2Bdq9al-7" edge="1">
          <mxGeometry width="50" height="50" relative="1" as="geometry">
            <mxPoint x="310" y="350" as="sourcePoint" />
            <mxPoint x="360" y="300" as="targetPoint" />
          </mxGeometry>
        </mxCell>
        <mxCell id="WT74Tv9Oj-zCt2Bdq9al-26" value="" style="endArrow=classic;html=1;exitX=1;exitY=0.5;exitDx=0;exitDy=0;entryX=0;entryY=0.5;entryDx=0;entryDy=0;" parent="1" source="WT74Tv9Oj-zCt2Bdq9al-7" target="WT74Tv9Oj-zCt2Bdq9al-10" edge="1">
          <mxGeometry width="50" height="50" relative="1" as="geometry">
            <mxPoint x="520" y="420" as="sourcePoint" />
            <mxPoint x="570" y="370" as="targetPoint" />
          </mxGeometry>
        </mxCell>
        <mxCell id="WT74Tv9Oj-zCt2Bdq9al-27" value="" style="endArrow=classic;html=1;exitX=0.5;exitY=1;exitDx=0;exitDy=0;" parent="1" source="WT74Tv9Oj-zCt2Bdq9al-11" target="WT74Tv9Oj-zCt2Bdq9al-12" edge="1">
          <mxGeometry width="50" height="50" relative="1" as="geometry">
            <mxPoint x="220" y="500" as="sourcePoint" />
            <mxPoint x="225" y="486" as="targetPoint" />
          </mxGeometry>
        </mxCell>
        <mxCell id="WT74Tv9Oj-zCt2Bdq9al-29" value="" style="endArrow=classic;html=1;entryX=0;entryY=0.5;entryDx=0;entryDy=0;" parent="1" source="WT74Tv9Oj-zCt2Bdq9al-11" target="WT74Tv9Oj-zCt2Bdq9al-19" edge="1">
          <mxGeometry width="50" height="50" relative="1" as="geometry">
            <mxPoint x="420" y="510" as="sourcePoint" />
            <mxPoint x="470" y="460" as="targetPoint" />
          </mxGeometry>
        </mxCell>
        <mxCell id="WT74Tv9Oj-zCt2Bdq9al-30" value="" style="endArrow=classic;html=1;exitX=0.5;exitY=1;exitDx=0;exitDy=0;entryX=0.5;entryY=0;entryDx=0;entryDy=0;" parent="1" source="WT74Tv9Oj-zCt2Bdq9al-16" target="WT74Tv9Oj-zCt2Bdq9al-18" edge="1">
          <mxGeometry width="50" height="50" relative="1" as="geometry">
            <mxPoint x="220" y="760" as="sourcePoint" />
            <mxPoint x="270" y="710" as="targetPoint" />
          </mxGeometry>
        </mxCell>
        <mxCell id="WT74Tv9Oj-zCt2Bdq9al-31" value="Wait 15 mins to subscribe again" style="rounded=1;whiteSpace=wrap;html=1;fillColor=#66FF66;" parent="1" vertex="1">
          <mxGeometry x="350" y="760" width="120" height="60" as="geometry" />
        </mxCell>
        <mxCell id="WT74Tv9Oj-zCt2Bdq9al-32" value="No" style="text;html=1;strokeColor=none;fillColor=none;align=center;verticalAlign=middle;whiteSpace=wrap;rounded=0;" parent="1" vertex="1">
          <mxGeometry x="460" y="225" width="40" height="20" as="geometry" />
        </mxCell>
        <mxCell id="WT74Tv9Oj-zCt2Bdq9al-33" value="Yes" style="text;html=1;strokeColor=none;fillColor=none;align=center;verticalAlign=middle;whiteSpace=wrap;rounded=0;" parent="1" vertex="1">
          <mxGeometry x="300" y="225" width="40" height="20" as="geometry" />
        </mxCell>
        <mxCell id="WT74Tv9Oj-zCt2Bdq9al-34" value="Yes" style="text;html=1;strokeColor=none;fillColor=none;align=center;verticalAlign=middle;whiteSpace=wrap;rounded=0;" parent="1" vertex="1">
          <mxGeometry x="310" y="320" width="40" height="20" as="geometry" />
        </mxCell>
        <mxCell id="WT74Tv9Oj-zCt2Bdq9al-35" value="No" style="text;html=1;strokeColor=none;fillColor=none;align=center;verticalAlign=middle;whiteSpace=wrap;rounded=0;" parent="1" vertex="1">
          <mxGeometry x="170" y="370" width="40" height="20" as="geometry" />
        </mxCell>
        <mxCell id="0GAu8hSEZp9TbbLC9I3T-1" value="SEND EMAIL" style="rounded=1;whiteSpace=wrap;html=1;" vertex="1" parent="1">
          <mxGeometry x="490" y="580" width="110" height="40" as="geometry" />
        </mxCell>
      </root>
    </mxGraphModel>
  </diagram>
</mxfile>
